<svg id="logo-text" xmlns="http://www.w3.org/2000/svg" viewBox="0 0 128 64" class="w-24" data-v-367e2feb=""><rect id="baseline" x="97.93" y="55.38" width="20.4" height="1.23" rx=".62" ry=".62" class="fill-brand-dark"></rect><path id="outline" d="m98.2,55.54s.11.35.26.33l19.09-.08s.07-.04.08-.08l.11-.16c1.06.28,2.16.43,3.26.45,1.02.03,2.02-.18,2.94-.62,1.24-.63,2.12-1.79,2.38-3.15,1.26-5.38-3.74-10.86-3.98-11.1l-.07-.07-2.65-1.73.2-.17c1.46-1.3,2.53-2.97,3.09-4.83.28-.91.45-1.86.5-2.81.06-.94.04-1.88-.07-2.82-.06-.51-.15-1.01-.26-1.51.07-.54.1-1.09.1-1.64,0-8.42-6.82-15.25-15.23-15.25s-15.25,6.82-15.25,15.23v.02c0,.65.04,1.31.13,1.95-.04.19-.08.37-.12.56-.05.34-.12.69-.14,1.01l-.05.5v.5c-.03.34,0,.7,0,1.04,0,.17,0,.35.04.5v.26l.03.26c.07.62.19,1.22.35,1.82-1.35-3.03-4.33-4.71-8.51-4.71h-.04c-2.76-.04-5.42.99-7.43,2.88-.37.35-.7.73-1.01,1.14-.25-.35-.52-.68-.82-.98-1.69-1.91-4.07-2.88-7.11-2.88-2.79,0-5.12.72-6.94,2.08v-.39c.06-2.3-.52-4.58-1.69-6.56-1.16-1.83-3.53-4-8.08-4h-7.07c-2.26,0-4.14,1.79-4.47,4.27l-.68,5.15h-13.35l.8-5.93c.13-.88-.14-1.77-.72-2.45l-.93-1.05h-13.7c-3,0-5.52,2.5-5.98,5.96l-3.78,28.51h46.43c3.18.06,6.22-1.31,8.29-3.73.17-.19.33-.39.5-.6.3.8.74,1.53,1.3,2.17,1.66,1.8,4.11,2.72,7.27,2.72s5.55-.83,7.45-2.45c.46-.39.88-.83,1.25-1.31,1.49,2.41,4.23,3.76,7.93,3.76,3.13,0,5.66-.95,7.49-2.76.35,1.12,1.15,2.06,2.2,2.58.92.43,1.92.64,2.94.62,1.24-.02,2.47-.21,3.65-.56m-78.37-3.47H4.92l3.33-25.08c.25-1.92,1.51-3.33,2.97-3.33h12.32s.03,0,0,.05l-.82,6.11h-9.52l-.68,5.32h7.89l-.83,6.16h-7.89l-.59,4.62h9.55l-.84,6.15Zm17.77-13.46l-8.08,7.93h7.07l-.78,5.52h-13.31l.74-5.52,8.36-7.93h-7.32l.74-5.52h13.31l-.74,5.52Zm20.37-5.17l-1.16,8.79c-.39,2.97-1.36,5.35-2.91,7.14-1.48,1.76-3.68,2.75-5.98,2.69h-8.64l3.53-26.75c.12-.95.74-1.65,1.47-1.65h7.07c2.59,0,4.44.87,5.55,2.6.85,1.5,1.27,3.21,1.21,4.94,0,.75-.05,1.49-.15,2.23Zm16.07,6.9l-.63,4.62c-.37,2.79-1.25,4.76-2.62,5.92s-3.2,1.74-5.5,1.74-3.97-.58-5.05-1.74c-.79-.87-1.19-2.17-1.19-3.91,0-.68.06-1.35.15-2.02l.62-4.62c.69-5.21,3.44-7.81,8.25-7.81,2.13,0,3.74.62,4.83,1.86.85.98,1.28,2.32,1.28,4.04,0,.64-.05,1.29-.14,1.92Zm16.07,1.62l-.24.39h-5.05c.49-.57.75-1.3.74-2.05,0-1.42-.53-2.13-1.6-2.13-.63,0-1.22.27-1.63.75-.52.66-.83,1.46-.89,2.3l-.38,2.88c-.04.25-.06.5-.06.75,0,1.39.66,2.09,1.96,2.09.45,0,.88-.21,1.17-.56.34-.33.56-.76.63-1.23l4.92.08c-.65,4.92-3.23,7.38-7.74,7.38-4.11,0-6.16-1.89-6.17-5.68,0-.57.04-1.13.12-1.7l.62-4.9c.32-2.52,1.18-4.46,2.59-5.8,1.46-1.36,3.39-2.09,5.39-2.05,4.21,0,6.31,1.95,6.31,5.84,0,.76-.06,1.52-.22,2.27-.08.48-.25.94-.48,1.36Zm34.72,10.01c-.15.9-.71,1.68-1.51,2.1-1.51.77-3.7.42-5.25,0l.71-4.78.37-.09c.38-.08.77-.13,1.16-.15.4-.01.8.02,1.19.1-.36-.21-.74-.38-1.14-.5-.27-.08-.55-.14-.83-.19.12-.07.23-.14.35-.2.24-.12.5-.2.77-.26-.28-.07-.56-.11-.84-.12-.27,0-.55.01-.82.05l.06-.34c.09-.55-.28-1.07-.83-1.16-.06,0-.12-.01-.18-.01h-20.03c-.56,0-1.02.44-1.02,1,0,.06,0,.12.01.18l.07.41c-.12,0-.24-.05-.35-.06-.29-.04-.58-.06-.88-.06-.29,0-.57.05-.85.12.27.06.52.15.77.26.12.06.24.13.35.2-.28.05-.56.11-.83.19-.4.13-.78.29-1.14.5.39-.08.79-.11,1.19-.1.39.02.78.07,1.16.15.27.06.53.13.79.2l.7,4.54c-1.67.5-4.09.89-5.64.1-.81-.42-1.39-1.2-1.54-2.1-.05-.2-.08-.41-.11-.62,1.09-1.73,1.77-3.68,1.99-5.71l.17-1.27c.21-.33.42-.63.62-.89.49-.66,1.09-1.23,1.78-1.68l2.24-1.46c.3.2.61.38.93.56.62.33,1.26.61,1.92.83.32.12.66.22.98.31l.22.06.2.07.39.15c1.01.4,2.06,1.1,3.39,1.64-.19-.68-.52-1.32-.97-1.87-.22-.28-.47-.53-.74-.77-.14-.12-.29-.23-.44-.33-.15-.1-.31-.2-.48-.28-.17-.09-.33-.16-.5-.23l-.26-.1-.25-.09c-.29-.1-.58-.2-.86-.32-.56-.22-1.1-.49-1.63-.8-.51-.29-1-.63-1.45-1.01-.45-.38-.86-.79-1.23-1.24-.37-.45-.69-.93-.95-1.45-.28-.52-.5-1.06-.67-1.62-.35-1.15-.52-2.34-.5-3.53,0-1.22.15-2.43.46-3.61.15-.59.35-1.17.59-1.74.13-.28.24-.57.38-.84l.21-.41.23-.4c.15-.27.33-.5.5-.79.09-.13.17-.26.25-.39l.12-.2.12-.2c.34-.58.63-1.19.85-1.82-.35.08-.69.22-1.01.4-.15.09-.3.18-.44.28s-.27.21-.4.32c-.26.23-.5.47-.72.74-.11.14-.21.27-.31.41s-.2.28-.29.42l-.28.43-.26.44s-.02.04-.04.06c1.24-7.44,8.29-12.47,15.73-11.23,5.56.93,9.98,5.17,11.13,10.69-.84-1.42-1.91-2.69-3.16-3.75-1.41-1.22-3.04-2.16-4.79-2.79-.86-.33-1.77-.54-2.69-.61-.46-.03-.92-.02-1.38.05-.23.03-.46.07-.68.13-.23.07-.45.13-.67.22.21.1.43.18.65.25.21.08.42.16.63.22.41.14.82.27,1.23.4.8.27,1.59.5,2.37.81,1.53.63,2.94,1.53,4.15,2.66,2.41,2.26,3.94,5.3,4.3,8.58.09.81.11,1.62.05,2.43-.05.8-.19,1.59-.41,2.36-.44,1.52-1.28,2.89-2.43,3.98l-.22.2-.23.18c-.08.07-.15.13-.23.19l-.24.18-.24.18c-.08.06-.16.11-.24.16-.16.1-.33.2-.5.28-.35.18-.72.33-1.1.45l-.29.1-.35.12c-.23.08-.46.17-.68.28-1.28.62-2.37,1.57-3.15,2.76-.26.39-.47.8-.63,1.24.82-.45,1.55-.9,2.3-1.31.71-.4,1.44-.76,2.19-1.06.19-.07.37-.14.55-.19l.28-.09.34-.1c.46-.14.91-.3,1.35-.5.22-.1.44-.22.66-.34l.19-.12,1.51.97c1.21.78,2.24,1.8,3.03,2.99,1.23,1.92,2.64,4.84,2,7.58h0ZM49.46,29.72h-1.93l-2.1,16.1h2.82c.85.04,1.66-.34,2.18-1.01.5-.67.88-1.77,1.08-3.3l.86-6.47c.08-.52.12-1.05.12-1.57,0-2.5-1.01-3.75-3.02-3.75Zm17.71,8.21c-.64,0-1.25.32-1.62.85-.47.67-.76,1.45-.83,2.27l-.39,2.96c-.05.33-.07.67-.06,1.01.02.47.15.92.39,1.32.27.48.8.76,1.35.71.65,0,1.26-.34,1.62-.89.45-.64.74-1.38.83-2.15l.38-2.96c.04-.33.07-.67.06-1.01-.02-.48-.15-.94-.38-1.36-.26-.5-.79-.8-1.35-.76Zm53.06-7.47c0,3.91-1.84,6.4-4.68,7.83h-.06c-.26.13-.52.24-.8.35-5.17,2.38-6.72,5.41-6.72,5.41,0,0-1.54-3.02-6.69-5.43-.29-.11-.54-.23-.8-.35h-.06c-2.86-1.41-4.69-3.9-4.69-7.81,0-1.95.51-3.87,1.51-5.55,1.26-2.22,3.82-3.35,6.31-2.79,1.46.29,2.94.43,4.42.42,1.49.01,2.97-.13,4.43-.42,2.49-.56,5.04.58,6.3,2.79,1,1.68,1.52,3.6,1.51,5.55Z"></path><path id="eyes" class="fill-brand-dark" d="m113.66,33.89c2.93-1.01,2.83-4.3,2.83-4.3l-6.56,2.75s1.14,2.43,3.73,1.55Zm-11.35,0c2.59.87,3.72-1.55,3.72-1.55l-6.56-2.75s-.1,3.31,2.84,4.3Z"></path><path id="code" class="fill-brand-dark" d="m107.36,54.35c.22.06.44-.06.5-.28,0,0,0,0,0,0l1.64-5.72c.06-.22-.07-.44-.28-.5s-.44.07-.5.28h0l-1.63,5.72c-.06.21.06.44.27.5,0,0,0,0,0,0Zm2.89-1.53c.16.16.41.16.57,0,0,0,0,0,0,0l1.43-1.43c.16-.16.16-.42,0-.58l-1.43-1.43c-.14-.17-.4-.2-.58-.06-.17.14-.2.4-.06.58.02.02.04.04.06.06l1.14,1.14-1.14,1.14c-.16.15-.17.41-.01.57,0,0,0,0,.01.01Zm-5.92-2.01c-.16.16-.16.42,0,.58,0,0,0,0,0,0l1.43,1.43c.16.16.42.16.58,0s.16-.42,0-.58l-1.14-1.14,1.14-1.14c.16-.16.17-.41.01-.58-.16-.16-.41-.17-.58-.01,0,0-.01.01-.02.02l-1.43,1.43Z"></path><path id="hoddiie" d="m122.79,44.31c-.79-1.2-1.82-2.22-3.03-2.99l-1.51-.97-.19.12c-.21.12-.43.24-.66.34-.44.2-.89.37-1.35.5l-.34.1-.28.09c-.18.05-.36.13-.55.19-.75.31-1.48.66-2.19,1.06-.75.4-1.48.85-2.3,1.31.16-.44.37-.86.63-1.24.78-1.19,1.87-2.14,3.15-2.76.22-.1.45-.2.68-.28l.35-.12.29-.1c.38-.12.74-.28,1.1-.45.17-.09.34-.18.5-.28.08-.05.16-.1.24-.16l.24-.18.24-.18c.08-.06.15-.13.23-.19l.23-.19.22-.2c1.15-1.08,1.99-2.46,2.43-3.98.23-.77.36-1.56.41-2.36.06-.81.04-1.62-.05-2.43-.36-3.28-1.89-6.32-4.3-8.58-1.21-1.13-2.62-2.04-4.15-2.66-.75-.3-1.54-.55-2.35-.81-.4-.13-.81-.26-1.23-.4-.21-.07-.42-.15-.63-.22-.22-.07-.44-.16-.65-.25.22-.09.44-.15.67-.22.22-.06.45-.1.68-.13.46-.06.92-.08,1.38-.05.92.07,1.83.28,2.69.61,1.75.63,3.38,1.57,4.79,2.79,1.26,1.07,2.32,2.34,3.16,3.75-1.54-7.39-8.78-12.13-16.17-10.59-5.52,1.15-9.76,5.57-10.69,11.13.01-.02.03-.04.04-.06l.26-.44.28-.43c.09-.14.19-.28.29-.42s.2-.28.31-.41c.22-.27.46-.51.72-.74.13-.11.27-.22.4-.32s.29-.19.44-.28c.32-.18.66-.31,1.01-.4-.22.63-.51,1.24-.85,1.82l-.12.2-.12.2c-.09.14-.16.27-.25.39-.16.27-.34.5-.5.79l-.23.4-.21.41c-.15.27-.26.56-.38.84-.23.56-.43,1.14-.59,1.74-.31,1.18-.47,2.39-.46,3.61-.01,1.2.16,2.39.5,3.53.17.56.4,1.1.67,1.62.27.51.59,1,.95,1.45.37.45.78.87,1.23,1.24.45.38.94.72,1.45,1.01.52.31,1.06.57,1.63.8.28.12.57.22.86.32l.25.09.26.1c.17.07.34.15.5.23.17.08.33.18.48.28.15.1.3.21.44.33.27.23.52.49.74.77.45.55.78,1.18.97,1.87-1.33-.54-2.37-1.23-3.39-1.64l-.39-.15-.2-.07-.22-.06c-.33-.09-.66-.2-.98-.31-.66-.23-1.3-.51-1.92-.83-.32-.17-.63-.36-.93-.56l-2.24,1.46c-.69.45-1.29,1.02-1.78,1.68-1.3,1.76-3.43,5.25-2.67,8.5.16.9.73,1.68,1.55,2.1,1.55.79,3.97.38,5.64-.1l-.7-4.54c-.26-.08-.5-.15-.79-.2-.38-.08-.77-.13-1.16-.15-.4-.01-.8.02-1.19.1.36-.21.74-.38,1.14-.5.27-.08.55-.14.83-.19-.12-.07-.23-.14-.35-.2-.24-.12-.5-.21-.77-.26.28-.07.56-.11.85-.12.29,0,.59.01.88.06.12,0,.24.04.35.06l-.07-.41c-.09-.55.28-1.07.83-1.16.06,0,.12-.01.18-.01h20.02c.56,0,1.02.44,1.02,1,0,.06,0,.12-.01.18l-.06.34c.27-.03.54-.05.82-.05.28,0,.57.05.84.12-.26.06-.52.15-.77.26-.12.06-.24.13-.35.2.28.05.56.11.83.19.4.12.78.29,1.14.5-.39-.08-.79-.11-1.19-.1-.39.02-.77.07-1.16.15l-.37.09-.74,4.78c1.55.41,3.74.76,5.25,0,.8-.43,1.36-1.21,1.51-2.1.67-2.77-.75-5.69-1.99-7.59Zm-14.8-.26s-1.54-3.03-6.72-5.41c-.27-.11-.54-.23-.8-.35h-.06c-2.86-1.41-4.69-3.9-4.69-7.81,0-1.95.51-3.87,1.51-5.55,1.26-2.22,3.82-3.35,6.31-2.79,1.46.29,2.94.43,4.42.42,1.49.01,2.97-.13,4.43-.42,2.49-.56,5.04.58,6.3,2.79,1,1.68,1.52,3.6,1.51,5.55,0,3.91-1.84,6.4-4.69,7.81h-.06c-.26.13-.5.24-.8.35-5.13,2.39-6.68,5.41-6.68,5.41Z" style="fill:#fff;"></path><path id="ezdoc" d="m51.33,23.56h-7.07c-.73,0-1.35.7-1.47,1.65l-3.53,26.75h8.64c2.3.07,4.51-.92,5.99-2.68,1.54-1.79,2.51-4.17,2.91-7.14l1.16-8.8c.1-.74.15-1.49.15-2.25.06-1.73-.36-3.44-1.21-4.94-1.12-1.73-2.97-2.59-5.56-2.59Zm1.01,11.48l-.86,6.47c-.2,1.51-.56,2.62-1.08,3.3-.52.67-1.33,1.05-2.18,1.01h-2.79l2.1-16.1h1.93c2.02,0,3.03,1.25,3.03,3.75,0,.53-.05,1.05-.13,1.57h-.03Zm15.72-2.6c-4.8,0-7.55,2.6-8.25,7.81l-.62,4.62c-.1.67-.15,1.34-.15,2.02,0,1.74.4,3.03,1.19,3.91,1.07,1.16,2.75,1.74,5.05,1.74s4.13-.58,5.5-1.74c1.37-1.16,2.25-3.13,2.62-5.92l.63-4.62c.09-.63.14-1.26.15-1.89,0-1.74-.43-3.08-1.28-4.04-1.09-1.26-2.7-1.88-4.84-1.89Zm.8,8.58l-.38,2.96c-.09.79-.37,1.55-.83,2.2-.36.55-.96.88-1.62.89-.55.05-1.08-.23-1.35-.71-.24-.4-.37-.86-.39-1.32,0-.34.02-.67.06-1.01l.39-2.96c.07-.82.35-1.6.83-2.27.37-.53.97-.85,1.62-.85.56-.04,1.09.25,1.35.75.23.42.36.88.38,1.36,0,.33-.02.66-.06.99v-.03Zm-57.17.18h7.89l.83-6.16h-7.89l.68-5.32h9.55l.82-6.11v-.05h-12.34c-1.46,0-2.72,1.4-2.97,3.33l-3.33,25.08h14.88l.84-6.15h-9.55l.59-4.62Zm12.58-2.68h7.32l-8.36,7.93-.74,5.52h13.31l.74-5.52h-7.06l8.1-7.93.74-5.52h-13.32l-.74,5.52Zm60.2-6.11c-1.99-.05-3.93.69-5.39,2.05-1.41,1.35-2.28,3.28-2.59,5.8l-.62,4.92c-.08.56-.12,1.13-.12,1.7,0,3.79,2.06,5.68,6.17,5.68,4.51,0,7.09-2.46,7.74-7.38l-4.9-.1c-.07.46-.28.89-.61,1.22-.29.34-.72.55-1.17.56-1.3,0-1.96-.7-1.96-2.09,0-.25.02-.5.06-.75l.38-2.88c.06-.83.37-1.63.89-2.29.4-.47.99-.73,1.61-.73,1.06,0,1.6.71,1.6,2.13.01.75-.25,1.48-.74,2.05h5.05l.24-.39c.23-.43.38-.89.46-1.36.16-.74.23-1.5.22-2.27,0-3.91-2.11-5.86-6.32-5.86Z" style="fill:#fff;"></path></svg>
